<?xml version="1.0" encoding="UTF-8" standalone="no"?>
<!-- Created with Inkscape (http://www.inkscape.org/) -->

<svg
   xmlns:dc="http://purl.org/dc/elements/1.1/"
   xmlns:cc="http://creativecommons.org/ns#"
   xmlns:rdf="http://www.w3.org/1999/02/22-rdf-syntax-ns#"
   xmlns:svg="http://www.w3.org/2000/svg"
   xmlns="http://www.w3.org/2000/svg"
   xmlns:sodipodi="http://sodipodi.sourceforge.net/DTD/sodipodi-0.dtd"
   xmlns:inkscape="http://www.inkscape.org/namespaces/inkscape"
   width="229.26225"
   height="124.91767"
   id="svg2"
   version="1.1"
   inkscape:version="0.48.4 r9939"
   sodipodi:docname="vile.svg">
  <defs
     id="defs4" />
  <sodipodi:namedview
     id="base"
     pagecolor="#ffffff"
     bordercolor="#666666"
     borderopacity="1.0"
     inkscape:pageopacity="0.0"
     inkscape:pageshadow="2"
     inkscape:zoom="4.5131579"
     inkscape:cx="148.31546"
     inkscape:cy="70.754579"
     inkscape:document-units="px"
     inkscape:current-layer="layer1"
     showgrid="false"
     fit-margin-top="0"
     fit-margin-left="0"
     fit-margin-right="0"
     fit-margin-bottom="0"
     inkscape:window-width="1438"
     inkscape:window-height="898"
     inkscape:window-x="0"
     inkscape:window-y="0"
     inkscape:window-maximized="0"
     showguides="true"
     inkscape:guide-bbox="true" />
  <metadata
     id="metadata7">
    <rdf:RDF>
      <cc:Work
         rdf:about="">
        <dc:format>image/svg+xml</dc:format>
        <dc:type
           rdf:resource="http://purl.org/dc/dcmitype/StillImage" />
        <dc:title></dc:title>
      </cc:Work>
    </rdf:RDF>
  </metadata>
  <g
     inkscape:label="Layer 1"
     inkscape:groupmode="layer"
     id="layer1"
     transform="translate(-189.74283,-333.58685)">
    <path
       id="path3050"
       style="fill:#ff2a2a;stroke:none;stroke-width:1;marker-end:none"
       d="m 279.43668,364.46971 c -12.71048,-1.23471 -26.96426,-3.90171 -39.95969,-7.4768 -18.02899,-4.95984 -16.70965,-4.05958 -20.4421,-13.94883 -1.79645,-4.75977 -3.03583,-8.88456 -2.75418,-9.16621 0.28165,-0.28166 3.58932,0.59702 7.35038,1.95261 3.76105,1.35559 11.56328,3.63143 17.33828,5.05742 12.85215,3.17353 57.99291,11.02118 63.5,11.03938 5.80224,0.0192 50.89411,-7.90274 65.30227,-11.47257 6.76624,-1.67643 14.34105,-3.92198 16.8329,-4.99011 7.40991,-3.17626 7.66492,-2.88813 4.69775,5.30794 -1.44357,3.9875 -3.12153,7.78467 -3.7288,8.43815 -1.24267,1.33725 -16.01785,6.17064 -28.10412,9.19367 -24.50818,6.13002 -55.32487,8.46549 -80.03269,6.06535 z m -4.02597,61.95791 c -0.61088,-0.98842 -4.7343,-48.94545 -4.25005,-49.42971 0.69944,-0.69943 22.52418,0.73075 23.87307,1.56441 2.78513,1.7213 1.99049,44.36816 -0.87795,47.11832 -0.88126,0.84492 -18.25662,1.53732 -18.74507,0.74698 z m 64.05866,1.91926 c -3.3,-0.50536 -10.725,-1.23507 -16.5,-1.62159 l -10.5,-0.70275 -0.67588,-4.5 c -0.37173,-2.475 -0.67587,-11.25 -0.67587,-19.5 0,-8.25 0.30414,-17.025 0.67587,-19.5 l 0.67588,-4.5 11.84661,-0.82006 c 6.51563,-0.45103 11.99572,-0.67094 12.17797,-0.4887 0.31963,0.31964 -0.90404,17.68583 -2.01722,28.62822 -0.33596,3.30242 -0.17482,5.09306 0.42496,4.72237 0.53137,-0.3284 4.6172,-0.29261 9.07962,0.0795 l 8.11351,0.67664 -0.67256,4.10099 c -0.93208,5.68346 -3.83996,13.92308 -4.99487,14.15324 -0.52691,0.10501 -3.65802,-0.22255 -6.95802,-0.72791 z m -117.47524,1.42566 c -6.18029,-8.40216 -14.77584,-24.05967 -19.35131,-35.25 -3.83289,-9.37419 -11.1914,-31.91352 -12.23489,-37.47583 l -0.6651,-3.54528 8.25584,3.53365 c 4.54072,1.94351 13.47919,5.31219 19.86327,7.48595 l 11.60743,3.95231 0.68071,4.7746 c 0.37439,2.62603 1.15914,8.60392 1.74388,13.28421 0.58475,4.68028 1.69644,10.53028 2.47043,13 l 1.40724,4.49039 0.0989,-8.29216 c 0.0846,-7.09747 2.48374,-22.9025 3.65732,-24.09386 0.33417,-0.33924 23.52232,3.85862 24.20837,4.38256 0.14675,0.11207 -0.85381,4.8837 -2.22348,10.60361 -2.70778,11.30808 -5.01737,25.24281 -6.07446,36.64985 -0.56673,6.11554 -0.95836,7.25 -2.50279,7.25 -1.00701,0 -7.06675,1.35 -13.46609,3 -6.39934,1.65 -11.83205,3 -12.07269,3 -0.24064,0 -2.67178,-3.0375 -5.40255,-6.75 z m 155.97524,6.2079 c -5.775,-1.81885 -13.5375,-3.86302 -17.25,-4.5426 -3.7125,-0.67958 -6.75,-1.54309 -6.75,-1.9189 0,-0.37582 0.89713,-3.29084 1.99361,-6.47784 2.58707,-7.51945 4.64082,-18.75126 6.49459,-35.51856 0.8209,-7.425 1.49688,-14.01242 1.50217,-14.63871 0.005,-0.62629 1.661,-1.44851 3.67934,-1.82715 5.72464,-1.07395 33.59194,-10.28953 42.58864,-14.08386 4.45853,-1.88037 8.34641,-3.17886 8.63973,-2.88553 0.88938,0.88938 -2.77897,30.7155 -3.9191,31.86492 -0.58393,0.58868 -6.29789,1.98477 -12.6977,3.10243 -15.39525,2.68861 -15.95382,4.48907 -0.79846,2.57375 6.32647,-0.79953 11.78919,-1.16717 12.13938,-0.81698 0.70636,0.70636 -4.29332,17.56237 -5.73202,19.32504 -0.57266,0.70161 -4.14434,1.02134 -9.64968,0.86381 -9.18754,-0.26288 -13.2405,0.20759 -13.2405,1.53698 0,0.43884 4.46345,0.95255 9.91878,1.14159 5.45533,0.18904 10.21172,0.6376 10.56976,0.9968 0.76319,0.76567 -1.92698,6.31057 -8.29473,17.09691 -3.46252,5.86517 -5.07606,7.72141 -6.63452,7.63245 -1.13261,-0.0647 -6.78429,-1.6057 -12.55929,-3.42455 z m -79.78625,19.59153 c -7.47731,-4.12228 -21.19935,-14.35723 -20.84719,-15.54943 0.16246,-0.55 3.85894,-1.36538 8.21441,-1.81195 9.42898,-0.96677 45.3653,-0.14178 46.57633,1.06925 1.48338,1.48338 -23.86422,19.27494 -27.38923,19.22458 -0.69744,-0.01 -3.64688,-1.32956 -6.55432,-2.93245 z" />
  </g>
</svg>
